# AST/ASF file generated using VICON BodyLanguage
# -----------------------------------------------
:version 1.10
:name VICON
:units
  mass 1.0
  length 0.45
  angle deg
:documentation
   .ast/.asf automatically generated from VICON data using
   VICON BodyBuilder and BodyLanguage model FoxedUp or BRILLIANT.MOD
:root
   order TX TY TZ RX RY RZ
   axis XYZ
   position 0 0 0  
   orientation 0 0 0 
:bonedata
  begin
     id 1 
     name lhipjoint
     direction 0.575328 -0.747301 0.332475 
     length 2.40933 
     axis 0 0 0  XYZ
  end
  begin
     id 2 
     name lfemur
     direction 0.34202 -0.939693 0  
     length 7.31453  
     axis 0 0 20  XYZ
    dof rx ry rz
    limits (-160.0 20.0)
           (-70.0 70.0)
           (-60.0 70.0)
  end
  begin
     id 3 
     name ltibia
     direction 0.34202 -0.939693 0   
     length 7.82185   
     axis 0 0 20   XYZ
    dof rx
    limits (-10.0 170.0)
  end
  begin
     id 4 
     name lfoot
     direction 0.0795993 -0.218697 0.972541   
     length 2.19173   
     axis -90 7.62852e-016 20   XYZ
    dof rx rz
    limits (-45.0 90.0)
           (-70.0 20.0)
  end
  begin
     id 5 
     name ltoes
     direction 1.53537e-011 -4.21894e-011 1   
     length 1.10023   
     axis -90 7.62852e-016 20   XYZ
    dof rx
    limits (-90.0 20.0)
  end
  begin
     id 6 
     name rhipjoint
     direction -0.513884 -0.783789 0.348708   
     length 2.29716  
     axis 0 0 0  XYZ 
  end
  begin
     id 7 
     name rfemur
     direction -0.34202 -0.939693 0   
     length 7.59573   
     axis 0 0 -20   XYZ
    dof rx ry rz
    limits (-160.0 20.0)
           (-70.0 70.0)
           (-70.0 60.0)
  end
  begin
     id 8 
     name rtibia
     direction -0.34202 -0.939693 0   
     length 7.66402   
     axis 0 0 -20   XYZ
    dof rx
    limits (-10.0 170.0)
 end
 begin
     id 9 
     name rfoot
     direction -0.137793 -0.378584 0.915253   
     length 2.27056  
     axis -90 -7.62852e-016 -20   XYZ
    dof rx rz
    limits (-45.0 90.0)
           (-20.0 70.0)
  end
  begin
     id 10 
     name rtoes
     direction -1.53493e-011 -4.22159e-011 1   
     length 1.11766   
     axis -90 -7.62852e-016 -20   XYZ
    dof rx
    limits (-90.0 20.0)
  end
  begin
     id 11 
     name lowerback
     direction -0.00732775 0.998356 -0.05685   
     length 2.16513   
     axis 0 0 0   XYZ
    dof rx ry rz
    limits (-20.0 45.0)
           (-30.0 30.0)
           (-30.0 30.0)
  end
  begin
     id 12 
     name upperback
     direction 0.0218081 0.999627 -0.0164647   
     length 2.16755   
     axis 0 0 0   XYZ
    dof rx ry rz
    limits (-20.0 45.0)
           (-30.0 30.0)
           (-30.0 30.0)
  end
  begin
     id 13 
     name thorax
     direction 0.02365 0.999661 0.0108914   
     length 2.16932   
     axis 0 0 0   XYZ
    dof rx ry rz
    limits (-20.0 45.0)
           (-30.0 30.0)
           (-30.0 30.0)
  end
  begin
     id 14 
     name lowerneck
     direction -0.0523929 0.978385 0.200044   
     length 1.63877   
     axis 0 0 0   XYZ
    dof rx ry rz
    limits (-20.0 45.0)
           (-30.0 30.0)
           (-30.0 30.0)
  end
  begin
     id 15 
     name upperneck
     direction 0.0448674 0.981321 -0.187074   
     length 1.69014   
     axis 0 0 0   XYZ
    dof rx ry rz
    limits (-20.0 45.0)
           (-30.0 30.0)
           (-30.0 30.0)
  end
  begin
     id 16
     name head
     direction 0.0199089 0.996118 -0.0857429  
     length 1.70094  
     axis 0 0 0   XYZ
    dof rx ry rz
    limits (-20.0 45.0)
           (-30.0 30.0)
           (-30.0 30.0)
  end
  begin
     id 17 
     name lclavicle
     direction 0.940366 0.30191 -0.156722  
     length 3.37521  
     axis 0 0 0   XYZ
    dof ry rz
    limits (-20.0 10.0)
           (0.0 20.0)
  end
  begin
     id 18 
     name lhumerus
     direction 1 -4.4897e-011 -1.7911e-027   
     length 5.25287   
     axis 180 -30 -90   XYZ
    dof rx ry rz
    limits (-60.0 90.0)
           (-90.0 90.0)
           (-90.0 90.0)
  end
  begin
     id 19
     name lradius
     direction 1 -4.48951e-011 1.04424e-027   
     length 3.51014   
     axis 180 -30 -90   XYZ
    dof rx
    limits (-10.0 170.0)
  end
  begin
     id 20
     name lwrist
     direction 1 -4.48997e-011 -9.5942e-028   
     length 1.75507   
     axis 8.48502e-016 90 90   XYZ
    dof ry
    limits (-180.0 0.0)
 end
  begin
     id 21 
     name lhand
     direction 1 -4.48831e-011 -1.90777e-027   
     length 0.706179   
     axis 1.22306e-015 90 90   XYZ
    dof rx rz
    limits (-90.0 90.0)
           (-45.0 45.0)
  end
  begin
     id 22 
     name lfingers
     direction 1 -4.49108e-011 -3.85244e-027   
     length 0.569339   
     axis 2.44611e-015 90 90   XYZ
    dof rx
    limits (0.0 90.0)
  end
  begin
     id 23
     name lthumb
     direction 0.707107 -6.34953e-011 0.707107   
     length 0.817461   
     axis -90 45 -1.62303e-014   XYZ
    dof rx rz
    limits (-45.0 45.0)
           (-45.0 45.0)
  end
  begin
     id 24 
     name rclavicle
     direction -0.905329 0.382405 -0.184787   
     length 3.30787  
     axis 0 0 0   XYZ 
    dof ry rz
    limits (-10.0 20.0)
           (-20.0 0.0)
  end
  begin
     id 25 
     name rhumerus
     direction -1 -4.48953e-011 -9.15316e-029  
     length 5.28721   
     axis 180 30 90   XYZ
    dof rx ry rz
    limits (-90.0 60.0)
           (-90.0 90.0)
           (-90.0 90.0)
  end
  begin
     id 26 
     name rradius
     direction -1 -4.48987e-011 9.37824e-028   
     length 3.50544   
     axis 180 30 90   XYZ
    dof rx
    limits (-10.0 170.0)
  end
  begin
     id 27 
     name rwrist
     direction -1 -4.48967e-011 -9.58414e-028   
     length 1.75272   
     axis 8.48502e-016 -90 -90   XYZ
    dof ry
    limits (-180.0 0.0)
  end
  begin
     id 28
     name rhand
     direction -1 -4.48904e-011 -1.91266e-027   
     length 0.884996   
     axis 1.22306e-015 -90 -90   XYZ
    dof rx rz
    limits (-90.0 90.0)
           (-45.0 45.0)
  end
  begin
     id 29
     name rfingers
     direction -1 -4.4909e-011 -3.85015e-027   
     length 0.713507   
     axis 2.44611e-015 -90 -90   XYZ
    dof rx
    limits (0.0 90.0)
  end
  begin
     id 30
     name rthumb
     direction -0.707107 -6.34853e-011 0.707107   
     length 1.02446   
     axis -90 -45 1.62303e-014   XYZ
    dof rx rz
    limits (-45.0 45.0)
           (-45.0 45.0)
  end
:hierarchy
  begin
    root lhipjoint rhipjoint lowerback
    lhipjoint lfemur
    lfemur ltibia
    ltibia lfoot
    lfoot ltoes
    rhipjoint rfemur
    rfemur rtibia
    rtibia rfoot
    rfoot rtoes
    lowerback upperback
    upperback thorax
    thorax lowerneck lclavicle rclavicle
    lowerneck upperneck
    upperneck head
    lclavicle lhumerus
    lhumerus lradius
    lradius lwrist
    lwrist lhand lthumb
    lhand lfingers
    rclavicle rhumerus
    rhumerus rradius
    rradius rwrist
    rwrist rhand rthumb
    rhand rfingers
  end

#!OML:ASF F:\twosubjects\two\Thursday\Session 1\justin.ASF
:FULLY-SPECIFIED
:DEGREES
193
root 8.3814 16.7408 -19.2193 -7.95643 -80.9114 10.8062
lowerback 5.41324 1.77435 -1.55372
upperback -4.5409 2.21881 0.177363
thorax -7.87133 1.16479 0.788879
lowerneck -18.1198 4.22607 -3.81076
upperneck 23.2845 5.37263 5.93313
head 10.1248 2.79669 3.46583
rclavicle -2.37299e-014 -6.36111e-015
rhumerus 15.2323 -51.2155 3.09928
rradius 67.7005
rwrist -21.234
rhand -31.4061 20.6853
rfingers 7.12502
rthumb -4.6753 -9.2431
lclavicle -2.37299e-014 -6.36111e-015
lhumerus 27.0506 46.0126 5.0849
lradius 88.4117
lwrist 0.144547
lhand -16.4634 39.2429
lfingers 7.12502
lthumb 9.75305 68.997
rfemur -6.48056 7.20035 0.842673
rtibia 40.9561
rfoot -16.6255 -5.71955
rtoes -35.527
lfemur -8.24505 -9.27915 5.32993
ltibia 26.17
lfoot -1.95202 -3.63344
ltoes -45.211
194
root 8.34811 17.0001 -19.2819 -7.97702 -80.9452 11.1389
lowerback 4.86835 2.22025 -1.55945
upperback -4.53734 2.78598 -0.359254
thorax -7.53866 1.4254 0.18199
lowerneck -18.9619 3.92331 -2.87104
upperneck 23.6212 4.65544 5.9972
head 10.4772 2.55971 3.28424
rclavicle -3.30604e-014 1.09332e-015
rhumerus 8.02458 -50.4225 6.50267
rradius 66.5057
rwrist -23.9398
rhand -27.6879 21.5781
rfingers 7.12502
rthumb -1.08444 -8.39885
lclavicle -3.30604e-014 1.09332e-015
lhumerus 24.7802 44.0838 5.53293
lradius 86.6702
lwrist 2.77493
lhand -16.4386 38.8133
lfingers 7.12502
lthumb 9.77704 68.5664
rfemur -6.41705 6.73307 1.05655
rtibia 39.3401
rfoot -12.8285 -4.82761
rtoes -35.2758
lfemur -8.20861 -9.97728 4.89218
ltibia 24.8576
lfoot 2.95811 -3.87471
ltoes -44.1795
195
root 8.32132 17.2461 -19.3408 -7.31279 -80.9524 10.8219
lowerback 4.19991 2.28396 -1.56249
upperback -4.35408 2.87473 -0.53178
thorax -6.94719 1.46394 0.0279096
lowerneck -20.0806 3.94342 -2.62594
upperneck 23.5676 4.63731 6.01546
head 10.6794 2.58963 3.28536
rclavicle 2.61433e-014 2.73329e-015
rhumerus 3.31244 -50.5843 7.7768
rradius 65.1205
rwrist -27.8349
rhand -22.7548 23.4098
rfingers 7.12502
rthumb 3.67987 -6.53822
lclavicle 2.61433e-014 2.73329e-015
lhumerus 20.9991 42.4319 4.80924
lradius 84.6168
lwrist 5.026
lhand -16.7662 38.1024
lfingers 7.12502
lthumb 9.46096 67.87
rfemur -6.41484 6.02682 1.33713
rtibia 37.6697
rfoot -8.98126 -3.654
rtoes -35.0565
lfemur -8.22361 -10.8315 4.68961
ltibia 23.5153
lfoot 7.93558 -3.62124
ltoes -38.6065
196
root 8.29808 17.4826 -19.3953 -5.96819 -80.8232 9.77885
lowerback 3.51118 1.33378 -1.79051
upperback -4.02089 1.6639 0.460388
thorax -6.21372 0.901696 1.33602
lowerneck -21.0742 4.54298 -5.35417
upperneck 23.8148 6.25732 6.69688
head 10.7327 3.17838 4.24815
rclavicle -6.79595e-015 -3.97569e-016
rhumerus 4.76388 -50.7288 4.35261
rradius 63.3046
rwrist -29.3194
rhand -19.6738 23.0184
rfingers 7.12502
rthumb 6.65472 -6.85707
lclavicle -6.79595e-015 -3.97569e-016
lhumerus 12.2418 40.8561 0.890109
lradius 82.5504
lwrist 6.71448
lhand -16.4904 38.2846
lfingers 7.12502
lthumb 9.72706 68.0399
rfemur -6.33693 5.76492 1.82221
rtibia 36.0252
rfoot -5.25559 -2.92993
rtoes -33.4516
lfemur -8.30527 -11.8405 4.57966
ltibia 22.269
lfoot 12.4512 -3.15647
ltoes -28.5897
197
root 8.27321 17.7222 -19.4521 -5.17241 -80.7444 9.20091
lowerback 2.83808 1.17076 -1.73073
upperback -3.80588 1.47152 0.637178
thorax -5.59586 0.802587 1.51899
lowerneck -21.61 4.7177 -5.99365
upperneck 23.8623 6.70462 6.89931
head 10.7826 3.35536 4.51066
rclavicle 1.37907e-014 3.97569e-016
rhumerus 1.45562 -49.5217 4.71058
rradius 61.637
rwrist -28.9967
rhand -18.5599 21.4846
rfingers 7.12502
rthumb 7.72996 -8.35416
lclavicle 1.37907e-014 3.97569e-016
lhumerus 7.75403 38.7988 0.276891
lradius 80.3886
lwrist 7.45512
lhand -15.8554 38.088
lfingers 7.12502
lthumb 10.3397 67.8138
rfemur -6.27126 6.09569 2.34721
rtibia 34.5461
rfoot -1.88555 -2.9501
rtoes -29.4212
lfemur -8.50702 -12.3049 4.10295
ltibia 21.3541
lfoot 15.5186 -3.56131
ltoes -23.365
198
root 8.25259 17.9396 -19.5075 -3.90886 -80.7283 8.13134
lowerback 2.13284 1.12458 -1.54372
upperback -3.58346 1.43724 0.780602
thorax -4.95647 0.775246 1.58086
lowerneck -21.8207 4.7223 -6.82971
upperneck 23.897 6.9107 7.29092
head 10.7652 3.42648 4.82594
rclavicle -1.64619e-014 1.59028e-015
rhumerus -1.9707 -47.8842 5.07851
rradius 59.8207
rwrist -27.2058
rhand -18.9027 19.4173
rfingers 7.12502
rthumb 7.39903 -10.4333
lclavicle -1.64619e-014 1.59028e-015
lhumerus 3.99598 36.7924 0.461241
lradius 78.3216
lwrist 7.79415
lhand -15.0754 37.4793
lfingers 7.12502
lthumb 11.092 67.1661
rfemur -6.34954 6.29299 2.95284
rtibia 33.3817
rfoot 0.695235 -3.1594
rtoes -24.9023
lfemur -8.82672 -12.2825 3.62342
ltibia 20.899
lfoot 16.183 -3.64757
ltoes -23.2536
199
root 8.24107 18.1192 -19.5557 -2.20767 -80.6194 6.71147
lowerback 1.47156 1.09937 -1.25047
upperback -3.48286 1.42581 0.887327
thorax -4.46911 0.756486 1.54087
lowerneck -22.1142 4.62641 -7.59855
upperneck 24.0133 6.9144 7.84639
head 10.8047 3.43074 5.17266
rclavicle -5.57839e-015 -3.18055e-015
rhumerus -5.47161 -45.6067 5.5119
rradius 58.0332
rwrist -25.1366
rhand -25.4834 14.4029
rfingers 7.12502
rthumb 1.04473 -15.5743
lclavicle -5.57839e-015 -3.18055e-015
lhumerus 0.799427 34.6402 1.25428
lradius 76.2361
lwrist 7.88767
lhand -15.3848 37.2585
lfingers 7.12502
lthumb 10.7936 66.9612
rfemur -6.6486 6.03522 3.57205
rtibia 32.6341
rfoot 2.12065 -3.42198
rtoes -23.1409
lfemur -9.35323 -12.2397 3.27437
ltibia 20.8635
lfoot 15.0821 -3.29991
ltoes -24.2664
